<svg width="1200" height="900" xmlns="http://www.w3.org/2000/svg">
          <!-- Background -->
          <rect width="1200" height="900" fill="#f9f9f9" />

          <!-- Title -->
          <text x="50%" y="40" text-anchor="middle" font-size="24" font-family="Arial" fill="#2c3e50">
            OpenCISC Processor: Distributed CISC Pipeline over RISC Cores and FPGAs
          </text>

          <!-- Legend -->
          <g transform="translate(50, 60)">
            <rect x="0" y="0" width="20" height="20" fill="#3498db" />
            <text x="30" y="15" font-size="14" font-family="Arial" fill="#2c3e50">RISC Core</text>

            <rect x="200" y="0" width="20" height="20" fill="#2ecc71" />
            <text x="230" y="15" font-size="14" font-family="Arial" fill="#2c3e50">Code Cache</text>

            <rect x="400" y="0" width="20" height="20" fill="#f1c40f" />
            <text x="430" y="15" font-size="14" font-family="Arial" fill="#2c3e50">Data Cache</text>

            <rect x="600" y="0" width="20" height="20" fill="#e67e22" />
            <text x="630" y="15" font-size="14" font-family="Arial" fill="#2c3e50">FPGA Accelerator</text>
          </g>

          <!-- Pipeline Stages -->
          <!-- Stage Template -->
          <g transform="translate(50, 120)">
            <text x="0" y="15" font-size="16" font-family="Arial" fill="#2c3e50">JIT Compiler</text>
            <!-- RISC Core -->
            <rect x="0" y="30" width="150" height="50" fill="#3498db" />
            <text x="75" y="60" text-anchor="middle" font-size="14" font-family="Arial" fill="white">RISC Core</text>
            <!-- Vertical Cache -->
            <rect x="180" y="30" width="50" height="50" fill="#2ecc71" />
            <text x="205" y="60" text-anchor="middle" font-size="12" font-family="Arial" fill="white">Code</text>
            <rect x="240" y="30" width="50" height="50" fill="#f1c40f" />
            <text x="265" y="60" text-anchor="middle" font-size="12" font-family="Arial" fill="white">Data</text>
            <!-- FPGA -->
            <rect x="320" y="30" width="150" height="50" fill="#e67e22" />
            <text x="395" y="60" text-anchor="middle" font-size="14" font-family="Arial" fill="white">FPGA</text>
          </g>

          <!-- Prefetch -->
          <g transform="translate(50, 220)">
            <text x="0" y="15" font-size="16" font-family="Arial" fill="#2c3e50">Prefetch</text>
            <rect x="0" y="30" width="150" height="50" fill="#3498db" />
            <text x="75" y="60" text-anchor="middle" font-size="14" font-family="Arial" fill="white">RISC Core</text>
            <rect x="180" y="30" width="50" height="50" fill="#2ecc71" />
            <text x="205" y="60" text-anchor="middle" font-size="12" font-family="Arial" fill="white">Code</text>
            <rect x="240" y="30" width="50" height="50" fill="#f1c40f" />
            <text x="265" y="60" text-anchor="middle" font-size="12" font-family="Arial" fill="white">Data</text>
            <rect x="320" y="30" width="150" height="50" fill="#e67e22" />
            <text x="395" y="60" text-anchor="middle" font-size="14" font-family="Arial" fill="white">FPGA</text>
          </g>

          <!-- Decode -->
          <g transform="translate(50, 320)">
            <text x="0" y="15" font-size="16" font-family="Arial" fill="#2c3e50">Decode</text>
            <rect x="0" y="30" width="150" height="50" fill="#3498db" />
            <text x="75" y="60" text-anchor="middle" font-size="14" font-family="Arial" fill="white">RISC Core</text>
            <rect x="180" y="30" width="50" height="50" fill="#2ecc71" />
            <text x="205" y="60" text-anchor="middle" font-size="12" font-family="Arial" fill="white">Code</text>
            <rect x="240" y="30" width="50" height="50" fill="#f1c40f" />
            <text x="265" y="60" text-anchor="middle" font-size="12" font-family="Arial" fill="white">Data</text>
            <rect x="320" y="30" width="150" height="50" fill="#e67e22" />
            <text x="395" y="60" text-anchor="middle" font-size="14" font-family="Arial" fill="white">FPGA</text>
          </g>

          <!-- Execute -->
          <g transform="translate(50, 420)">
            <text x="0" y="15" font-size="16" font-family="Arial" fill="#2c3e50">Execute</text>
            <rect x="0" y="30" width="150" height="50" fill="#3498db" />
            <text x="75" y="60" text-anchor="middle" font-size="14" font-family="Arial" fill="white">RISC Core</text>
            <rect x="180" y="30" width="50" height="50" fill="#2ecc71" />
            <text x="205" y="60" text-anchor="middle" font-size="12" font-family="Arial" fill="white">Code</text>
            <rect x="240" y="30" width="50" height="50" fill="#f1c40f" />
            <text x="265" y="60" text-anchor="middle" font-size="12" font-family="Arial" fill="white">Data</text>
            <rect x="320" y="30" width="150" height="50" fill="#e67e22" />
            <text x="395" y="60" text-anchor="middle" font-size="14" font-family="Arial" fill="white">FPGA</text>
          </g>

          <!-- Memory Access -->
          <g transform="translate(50, 520)">
            <text x="0" y="15" font-size="16" font-family="Arial" fill="#2c3e50">Memory Access</text>
            <rect x="0" y="30" width="150" height="50" fill="#3498db" />
            <text x="75" y="60" text-anchor="middle" font-size="14" font-family="Arial" fill="white">RISC Core</text>
            <rect x="180" y="30" width="50" height="50" fill="#2ecc71" />
            <text x="205" y="60" text-anchor="middle" font-size="12" font-family="Arial" fill="white">Code</text>
            <rect x="240" y="30" width="50" height="50" fill="#f1c40f" />
            <text x="265" y="60" text-anchor="middle" font-size="12" font-family="Arial" fill="white">Data</text>
            <rect x="320" y="30" width="150" height="50" fill="#e67e22" />
            <text x="395" y="60" text-anchor="middle" font-size="14" font-family="Arial" fill="white">FPGA</text>
          </g>

          <!-- Writeback -->
          <g transform="translate(50, 620)">
            <text x="0" y="15" font-size="16" font-family="Arial" fill="#2c3e50">Writeback</text>
            <rect x="0" y="30" width="150" height="50" fill="#3498db" />
            <text x="75" y="60" text-anchor="middle" font-size="14" font-family="Arial" fill="white">RISC Core</text>
            <rect x="180" y="30" width="50" height="50" fill="#2ecc71" />
            <text x="205" y="60" text-anchor="middle" font-size="12" font-family="Arial" fill="white">Code</text>
            <rect x="240" y="30" width="50" height="50" fill="#f1c40f" />
            <text x="265" y="60" text-anchor="middle" font-size="12" font-family="Arial" fill="white">Data</text>
            <rect x="320" y="30" width="150" height="50" fill="#e67e22" />
            <text x="395" y="60" text-anchor="middle" font-size="14" font-family="Arial" fill="white">FPGA</text>
          </g>

          <!-- Footer -->
          <text x="50%" y="850" text-anchor="middle" font-size="12" font-family="Arial" fill="#7f8c8d">
            OpenCISC Processor - Distributed CISC Pipeline over RISC Cores and FPGAs
          </text>
 </svg>